ffmpeg version 4.2.4-1ubuntu0.1 Copyright (c) 2000-2020 the FFmpeg developers
  built with gcc 9 (Ubuntu 9.3.0-10ubuntu2)
  configuration: --prefix=/usr --extra-version=1ubuntu0.1 --toolchain=hardened --libdir=/usr/lib/x86_64-linux-gnu --incdir=/usr/include/x86_64-linux-gnu --arch=amd64 --enable-gpl --disable-stripping --enable-avresample --disable-filter=resample --enable-avisynth --enable-gnutls --enable-ladspa --enable-libaom --enable-libass --enable-libbluray --enable-libbs2b --enable-libcaca --enable-libcdio --enable-libcodec2 --enable-libflite --enable-libfontconfig --enable-libfreetype --enable-libfribidi --enable-libgme --enable-libgsm --enable-libjack --enable-libmp3lame --enable-libmysofa --enable-libopenjpeg --enable-libopenmpt --enable-libopus --enable-libpulse --enable-librsvg --enable-librubberband --enable-libshine --enable-libsnappy --enable-libsoxr --enable-libspeex --enable-libssh --enable-libtheora --enable-libtwolame --enable-libvidstab --enable-libvorbis --enable-libvpx --enable-libwavpack --enable-libwebp --enable-libx265 --enable-libxml2 --enable-libxvid --enable-libzmq --enable-libzvbi --enable-lv2 --enable-omx --enable-openal --enable-opencl --enable-opengl --enable-sdl2 --enable-libdc1394 --enable-libdrm --enable-libiec61883 --enable-nvenc --enable-chromaprint --enable-frei0r --enable-libx264 --enable-shared
  WARNING: library configuration mismatch
  avcodec     configuration: --prefix=/usr --extra-version=1ubuntu0.1 --toolchain=hardened --libdir=/usr/lib/x86_64-linux-gnu --incdir=/usr/include/x86_64-linux-gnu --arch=amd64 --enable-gpl --disable-stripping --enable-avresample --disable-filter=resample --enable-avisynth --enable-gnutls --enable-ladspa --enable-libaom --enable-libass --enable-libbluray --enable-libbs2b --enable-libcaca --enable-libcdio --enable-libcodec2 --enable-libflite --enable-libfontconfig --enable-libfreetype --enable-libfribidi --enable-libgme --enable-libgsm --enable-libjack --enable-libmp3lame --enable-libmysofa --enable-libopenjpeg --enable-libopenmpt --enable-libopus --enable-libpulse --enable-librsvg --enable-librubberband --enable-libshine --enable-libsnappy --enable-libsoxr --enable-libspeex --enable-libssh --enable-libtheora --enable-libtwolame --enable-libvidstab --enable-libvorbis --enable-libvpx --enable-libwavpack --enable-libwebp --enable-libx265 --enable-libxml2 --enable-libxvid --enable-libzmq --enable-libzvbi --enable-lv2 --enable-omx --enable-openal --enable-opencl --enable-opengl --enable-sdl2 --enable-libdc1394 --enable-libdrm --enable-libiec61883 --enable-nvenc --enable-chromaprint --enable-frei0r --enable-libx264 --enable-shared --enable-version3 --disable-doc --disable-programs --enable-libaribb24 --enable-liblensfun --enable-libopencore_amrnb --enable-libopencore_amrwb --enable-libtesseract --enable-libvo_amrwbenc
  libavutil      56. 31.100 / 56. 31.100
  libavcodec     58. 54.100 / 58. 54.100
  libavformat    58. 29.100 / 58. 29.100
  libavdevice    58.  8.100 / 58.  8.100
  libavfilter     7. 57.100 /  7. 57.100
  libavresample   4.  0.  0 /  4.  0.  0
  libswscale      5.  5.100 /  5.  5.100
  libswresample   3.  5.100 /  3.  5.100
  libpostproc    55.  5.100 / 55.  5.100
Input #0, image2pipe, from 'pipe:':
  Duration: N/A, bitrate: N/A
    Stream #0:0: Video: ppm, rgb24, 320x240, 20 fps, 20 tbr, 20 tbn, 20 tbc
Stream mapping:
  Stream #0:0 -> #0:0 (ppm (native) -> h264 (libx264))
[libx264 @ 0x55a8cfa0af40] using cpu capabilities: MMX2 SSE2Fast SSSE3 SSE4.2 AVX FMA3 BMI2 AVX2
[libx264 @ 0x55a8cfa0af40] profile High, level 1.3
[libx264 @ 0x55a8cfa0af40] 264 - core 155 r2917 0a84d98 - H.264/MPEG-4 AVC codec - Copyleft 2003-2018 - http://www.videolan.org/x264.html - options: cabac=1 ref=3 deblock=1:0:0 analyse=0x3:0x113 me=hex subme=7 psy=1 psy_rd=1.00:0.00 mixed_ref=1 me_range=16 chroma_me=1 trellis=1 8x8dct=1 cqm=0 deadzone=21,11 fast_pskip=1 chroma_qp_offset=-2 threads=7 lookahead_threads=1 sliced_threads=0 nr=0 decimate=1 interlaced=0 bluray_compat=0 constrained_intra=0 bframes=3 b_pyramid=2 b_adapt=1 b_bias=0 direct=1 weightb=1 open_gop=0 weightp=2 keyint=250 keyint_min=20 scenecut=40 intra_refresh=0 rc_lookahead=40 rc=abr mbtree=1 bitrate=400 ratetol=1.0 qcomp=0.60 qpmin=0 qpmax=69 qpstep=4 ip_ratio=1.40 aq=1:1.00
Output #0, mp4, to './mission_records/ebc0cb63-babc-4f3f-a3ae-f4304e240459/video.mp4':
  Metadata:
    encoder         : Lavf58.29.100
    Stream #0:0: Video: h264 (libx264) (avc1 / 0x31637661), yuv420p, 320x240, q=-1--1, 400 kb/s, 20 fps, 10240 tbn, 20 tbc
    Metadata:
      encoder         : Lavc58.54.100 libx264
    Side data:
      cpb: bitrate max/min/avg: 0/0/400000 buffer size: 0 vbv_delay: -1
frame=   32 fps=0.0 q=0.0 size=       0kB time=00:00:00.00 bitrate=N/A speed=   0x    frame=   42 fps= 39 q=0.0 size=       0kB time=00:00:00.00 bitrate=N/A speed=   0x    frame=   51 fps= 32 q=0.0 size=       0kB time=00:00:00.00 bitrate=N/A speed=   0x    frame=   60 fps= 28 q=27.0 size=       0kB time=00:00:00.30 bitrate=   1.3kbits/s speed=0.141x    frame=   70 fps= 26 q=26.0 size=       0kB time=00:00:00.80 bitrate=   0.5kbits/s speed=0.299x    frame=   79 fps= 25 q=25.0 size=       0kB time=00:00:01.25 bitrate=   0.3kbits/s speed=0.392x    frame=   89 fps= 24 q=25.0 size=       0kB time=00:00:01.75 bitrate=   0.2kbits/s speed=0.469x    frame=   99 fps= 23 q=25.0 size=       0kB time=00:00:02.25 bitrate=   0.2kbits/s speed=0.526x    frame=  109 fps= 23 q=26.0 size=       0kB time=00:00:02.75 bitrate=   0.1kbits/s speed=0.569x    frame=  118 fps= 22 q=24.0 size=       0kB time=00:00:03.20 bitrate=   0.1kbits/s speed= 0.6x    frame=  128 fps= 22 q=23.0 size=       0kB time=00:00:03.70 bitrate=   0.1kbits/s speed=0.631x    frame=  137 fps= 21 q=22.0 size=       0kB time=00:00:04.15 bitrate=   0.1kbits/s speed=0.648x    frame=  147 fps= 21 q=21.0 size=       0kB time=00:00:04.65 bitrate=   0.1kbits/s speed=0.667x    frame=  157 fps= 21 q=21.0 size=       0kB time=00:00:05.15 bitrate=   0.1kbits/s speed=0.685x    frame=  166 fps= 21 q=20.0 size=       0kB time=00:00:05.60 bitrate=   0.1kbits/s speed=0.698x    frame=  176 fps= 21 q=20.0 size=       0kB time=00:00:06.10 bitrate=   0.1kbits/s speed=0.711x    frame=  185 fps= 20 q=19.0 size=     256kB time=00:00:06.55 bitrate= 320.2kbits/s speed=0.719x    frame=  194 fps= 20 q=19.0 size=     256kB time=00:00:07.00 bitrate= 299.6kbits/s speed=0.727x    frame=  203 fps= 20 q=19.0 size=     256kB time=00:00:07.45 bitrate= 281.5kbits/s speed=0.733x    frame=  212 fps= 20 q=19.0 size=     256kB time=00:00:07.90 bitrate= 265.5kbits/s speed=0.74x    frame=  221 fps= 20 q=19.0 size=     256kB time=00:00:08.35 bitrate= 251.2kbits/s speed=0.744x    frame=  230 fps= 20 q=19.0 size=     256kB time=00:00:08.80 bitrate= 238.4kbits/s speed=0.75x    frame=  239 fps= 20 q=19.0 size=     256kB time=00:00:09.25 bitrate= 226.8kbits/s speed=0.755x    frame=  248 fps= 19 q=18.0 size=     256kB time=00:00:09.70 bitrate= 216.2kbits/s speed=0.759x    frame=  257 fps= 19 q=18.0 size=     256kB time=00:00:10.15 bitrate= 206.7kbits/s speed=0.765x    frame=  266 fps= 19 q=18.0 size=     256kB time=00:00:10.60 bitrate= 197.9kbits/s speed=0.769x    frame=  275 fps= 19 q=18.0 size=     256kB time=00:00:11.05 bitrate= 189.8kbits/s speed=0.772x    frame=  284 fps= 19 q=18.0 size=     256kB time=00:00:11.50 bitrate= 182.4kbits/s speed=0.776x    frame=  293 fps= 19 q=18.0 size=     256kB time=00:00:11.95 bitrate= 175.5kbits/s speed=0.78x    frame=  293 fps= 19 q=-1.0 Lsize=     631kB time=00:00:14.50 bitrate= 356.5kbits/s speed=0.936x    
video:627kB audio:0kB subtitle:0kB other streams:0kB global headers:0kB muxing overhead: 0.658261%
[libx264 @ 0x55a8cfa0af40] frame I:2     Avg QP:14.99  size: 20442
[libx264 @ 0x55a8cfa0af40] frame P:93    Avg QP:11.80  size:  4371
[libx264 @ 0x55a8cfa0af40] frame B:198   Avg QP:17.41  size:   979
[libx264 @ 0x55a8cfa0af40] consecutive B-frames:  8.5%  1.4%  8.2% 81.9%
[libx264 @ 0x55a8cfa0af40] mb I  I16..4: 20.0% 36.0% 44.0%
[libx264 @ 0x55a8cfa0af40] mb P  I16..4:  2.6%  0.9%  0.6%  P16..4: 50.2%  7.5% 12.8%  0.0%  0.0%    skip:25.4%
[libx264 @ 0x55a8cfa0af40] mb B  I16..4:  0.1%  0.0%  0.0%  B16..8: 25.9%  3.9%  2.5%  direct: 5.6%  skip:62.0%  L0:41.7% L1:53.7% BI: 4.6%
[libx264 @ 0x55a8cfa0af40] final ratefactor: 15.48
[libx264 @ 0x55a8cfa0af40] 8x8 transform intra:26.4% inter:47.0%
[libx264 @ 0x55a8cfa0af40] coded y,uvDC,uvAC intra: 47.4% 48.9% 36.2% inter: 19.5% 18.4% 9.0%
[libx264 @ 0x55a8cfa0af40] i16 v,h,dc,p:  6% 46% 47%  1%
[libx264 @ 0x55a8cfa0af40] i8 v,h,dc,ddl,ddr,vr,hd,vl,hu: 11% 18% 22%  8%  9%  6% 12%  4% 11%
[libx264 @ 0x55a8cfa0af40] i4 v,h,dc,ddl,ddr,vr,hd,vl,hu:  9% 31% 19%  6%  7%  5% 11%  4%  8%
[libx264 @ 0x55a8cfa0af40] i8c dc,h,v,p: 46% 46%  6%  2%
[libx264 @ 0x55a8cfa0af40] Weighted P-Frames: Y:9.7% UV:2.2%
[libx264 @ 0x55a8cfa0af40] ref P L0: 81.6%  4.9% 10.1%  3.2%  0.2%
[libx264 @ 0x55a8cfa0af40] ref B L0: 91.4%  7.4%  1.2%
[libx264 @ 0x55a8cfa0af40] ref B L1: 94.2%  5.8%
[libx264 @ 0x55a8cfa0af40] kb/s:350.19
